<?xml version="1.0" standalone="no"?>
<!DOCTYPE svg PUBLIC "-//W3C//DTD SVG 20010904//EN"
 "http://www.w3.org/TR/2001/REC-SVG-20010904/DTD/svg10.dtd">
<svg version="1.0" xmlns="http://www.w3.org/2000/svg"
 width="512.000000pt" height="512.000000pt" viewBox="0 0 512.000000 512.000000"
 preserveAspectRatio="xMidYMid meet">

<g transform="translate(0.000000,512.000000) scale(0.100000,-0.100000)"
fill="#000000" stroke="none">
<path d="M2515 5101 c-51 -23 -2071 -1157 -2107 -1182 -14 -11 -35 -38 -46
-62 -20 -41 -21 -76 -36 -1253 -10 -832 -12 -1223 -5 -1249 6 -20 27 -52 47
-71 47 -44 2085 -1265 2132 -1277 20 -6 52 -7 71 -3 31 5 2074 1142 2148 1195
16 12 38 40 50 64 20 41 20 66 30 1271 10 1189 10 1230 -8 1271 -10 23 -34 53
-52 67 -37 28 -1969 1173 -2058 1220 -62 33 -109 35 -166 9z m920 -870 c457
-271 831 -494 832 -495 1 -1 -370 -211 -825 -466 -455 -255 -839 -471 -853
-479 -25 -14 -47 -2 -867 485 -490 291 -836 502 -829 506 246 145 1687 947
1697 944 8 -1 389 -225 845 -495z m-1886 -1270 l831 -494 0 -988 c0 -544 -2
-989 -4 -989 -3 0 -388 230 -856 511 l-852 511 6 172 c3 94 8 466 11 826 6
693 12 953 25 948 4 -2 382 -225 839 -497z m2895 -188 c-3 -357 -7 -802 -10
-989 l-6 -342 -835 -468 c-459 -258 -839 -471 -844 -472 -5 -2 -9 402 -9 980
l1 983 847 476 c466 262 850 477 853 478 4 1 5 -290 3 -646z"/>
</g>
</svg>
