<?xml version="1.0" standalone="no"?>
<!DOCTYPE svg PUBLIC "-//W3C//DTD SVG 20010904//EN"
 "http://www.w3.org/TR/2001/REC-SVG-20010904/DTD/svg10.dtd">
<svg version="1.0" xmlns="http://www.w3.org/2000/svg"
 width="512.000000pt" height="512.000000pt" viewBox="0 0 512.000000 512.000000"
 preserveAspectRatio="xMidYMid meet">

<g transform="translate(0.000000,512.000000) scale(0.100000,-0.100000)"
fill="#000000" stroke="none">
<path d="M342 5109 c-45 -14 -105 -76 -120 -125 -9 -30 -12 -159 -12 -463 0
-459 0 -464 58 -524 60 -63 48 -62 502 -65 482 -4 501 -2 565 62 96 97 75 250
-44 313 -42 22 -54 23 -253 23 -114 0 -208 4 -208 9 0 5 30 33 68 64 181 148
380 242 623 294 78 17 156 18 1039 18 898 0 960 -1 1045 -19 278 -58 515 -185
710 -381 196 -195 323 -432 381 -710 18 -85 19 -147 19 -1045 0 -898 -1 -960
-19 -1045 -58 -278 -185 -515 -381 -710 -195 -196 -432 -323 -710 -381 -85
-18 -147 -19 -1045 -19 -1049 0 -1008 -2 -1205 62 -407 132 -733 448 -875 848
-71 201 -72 215 -79 790 l-6 520 -24 38 c-13 21 -42 50 -64 65 -34 22 -52 27
-106 27 -79 0 -128 -25 -169 -88 l-27 -41 -3 -455 c-3 -474 3 -598 38 -769 93
-445 380 -860 773 -1117 171 -111 397 -205 589 -245 189 -39 277 -42 1238 -37
992 4 945 2 1160 57 165 42 376 136 520 233 359 239 636 624 740 1027 54 210
53 179 57 1165 5 956 2 1045 -37 1233 -41 198 -136 422 -253 600 -84 127 -109
158 -225 275 -246 250 -565 423 -902 491 -172 35 -281 37 -1220 33 -991 -4
-945 -2 -1157 -56 -224 -58 -452 -171 -645 -321 l-63 -49 -5 148 c-5 139 -7
150 -32 188 -15 22 -43 50 -62 62 -41 26 -125 35 -174 20z"/>
<path d="M2492 3929 c-45 -13 -108 -80 -121 -126 -15 -53 -15 -1253 0 -1308 9
-34 75 -104 427 -458 230 -230 433 -427 452 -437 86 -44 169 -32 235 35 65 65
79 147 38 230 -8 17 -183 199 -389 405 l-374 375 -2 580 -3 580 -24 38 c-47
76 -151 113 -239 86z"/>
</g>
</svg>
