<?xml version="1.0" standalone="no"?>
<!DOCTYPE svg PUBLIC "-//W3C//DTD SVG 20010904//EN"
 "http://www.w3.org/TR/2001/REC-SVG-20010904/DTD/svg10.dtd">
<svg version="1.0" xmlns="http://www.w3.org/2000/svg"
 width="512.000000pt" height="512.000000pt" viewBox="0 0 512.000000 512.000000"
 preserveAspectRatio="xMidYMid meet">

<g transform="translate(0.000000,512.000000) scale(0.100000,-0.100000)"
fill="#000000" stroke="none">
<path d="M2385 5010 c-307 -35 -557 -150 -756 -349 -112 -112 -164 -186 -229
-325 -86 -179 -121 -323 -145 -578 -45 -493 27 -964 200 -1308 91 -180 202
-315 365 -442 32 -25 33 -28 20 -53 -21 -40 -149 -157 -231 -213 -219 -147
-509 -268 -919 -383 -274 -76 -386 -140 -494 -283 -135 -178 -190 -370 -191
-671 0 -188 5 -208 65 -259 80 -67 193 -53 257 31 28 36 28 39 35 222 7 201
23 281 76 389 32 66 95 133 151 161 23 12 108 40 189 62 587 161 992 358 1233
598 53 53 113 123 134 156 21 33 39 61 40 63 2 2 43 -5 91 -14 172 -34 464
-23 631 22 18 5 25 -1 42 -33 76 -151 297 -340 561 -481 200 -107 536 -232
848 -316 73 -20 150 -45 170 -55 78 -42 139 -117 179 -221 37 -96 45 -151 52
-336 6 -179 6 -181 35 -218 31 -41 94 -75 139 -76 60 0 133 45 165 105 24 43
23 344 -2 469 -43 221 -140 397 -284 518 -72 60 -210 121 -367 163 -305 80
-616 198 -797 301 -175 100 -318 217 -375 307 l-24 38 28 21 c60 45 210 206
254 273 202 308 299 691 300 1184 1 295 -27 525 -86 706 -144 440 -485 727
-962 810 -108 19 -298 26 -398 15z m381 -374 c321 -69 538 -262 638 -569 80
-245 96 -694 36 -1024 -75 -412 -245 -685 -505 -809 -126 -60 -209 -77 -390
-78 -191 -1 -266 13 -401 79 -160 77 -275 194 -366 371 -121 234 -172 497
-172 879 0 242 11 366 45 504 94 381 354 612 740 660 95 12 287 5 375 -13z"/>
</g>
</svg>
