<?xml version="1.0" standalone="no"?>
<!DOCTYPE svg PUBLIC "-//W3C//DTD SVG 20010904//EN"
 "http://www.w3.org/TR/2001/REC-SVG-20010904/DTD/svg10.dtd">
<svg version="1.0" xmlns="http://www.w3.org/2000/svg"
 width="96.000000pt" height="96.000000pt" viewBox="0 0 96.000000 96.000000"
 preserveAspectRatio="xMidYMid meet">

<g transform="translate(0.000000,96.000000) scale(0.100000,-0.100000)"
fill="#000000" stroke="none">
<path d="M435 886 c-97 -31 -211 -122 -203 -162 6 -34 38 -28 74 15 82 96 238
126 356 68 65 -32 121 -90 152 -156 16 -35 21 -65 21 -131 0 -100 -20 -154
-84 -223 -46 -49 -71 -102 -71 -146 0 -25 -4 -30 -27 -33 -22 -2 -28 -8 -28
-28 0 -21 5 -25 35 -28 52 -4 72 16 81 82 6 48 15 67 55 114 78 94 99 150 99
262 0 87 -3 101 -32 160 -34 70 -86 129 -144 166 -79 50 -200 67 -284 40z"/>
<path d="M495 711 c-38 -17 -68 -58 -69 -98 -1 -34 2 -38 23 -38 19 0 26 7 33
30 14 54 62 71 98 35 29 -29 25 -53 -20 -105 -59 -68 -69 -130 -20 -130 19 0
26 6 28 25 2 13 22 44 43 69 44 50 54 76 45 124 -12 66 -101 114 -161 88z"/>
<path d="M118 508 c-32 -40 -58 -82 -58 -94 0 -26 26 -50 68 -65 31 -11 32
-13 32 -70 0 -75 19 -97 113 -128 41 -14 67 -28 67 -37 0 -8 9 -23 20 -34 16
-16 33 -20 94 -20 53 0 77 4 86 15 23 28 -5 45 -76 45 -47 0 -64 4 -64 13 0
23 -43 54 -100 72 -77 25 -80 28 -80 100 0 69 -6 78 -64 98 l-36 12 51 63 c52
64 59 95 24 100 -14 2 -36 -18 -77 -70z"/>
<path d="M510 345 c-15 -18 -10 -45 13 -59 34 -22 73 27 47 59 -16 19 -44 19
-60 0z"/>
</g>
</svg>
