<svg xmlns="http://www.w3.org/2000/svg"  viewBox="0 0 72 72" width="64px" height="64px"><path d="M 36 12 C 32.048 12 28.321156 12.957344 25.035156 14.652344 C 22.801156 15.803344 22.129313 18.662203 23.695312 20.658203 C 24.942312 22.247203 26.947906 22.679734 28.628906 21.802734 C 30.834906 20.651734 33.34 20 36 20 C 44.158366 20 50.877492 26.108883 51.863281 34 L 48.845703 34 C 47.372703 34 46.503844 35.654188 47.339844 36.867188 L 54.492188 47.248047 C 55.219187 48.303047 56.778859 48.303047 57.505859 47.248047 L 64.658203 36.867188 C 65.495203 35.654188 64.626344 34 63.152344 34 L 59.910156 34 C 58.892553 21.682129 48.580543 12 36 12 z M 16 23.958984 C 15.4285 23.958984 14.857641 24.224453 14.494141 24.751953 L 7.3398438 35.132812 C 6.5028438 36.345812 7.3717031 38 8.8457031 38 L 12.089844 38 C 13.107447 50.317871 23.419457 60 36 60 C 39.952 60 43.678844 59.042656 46.964844 57.347656 C 49.198844 56.196656 49.870688 53.337797 48.304688 51.341797 C 47.057688 49.752797 45.052094 49.320266 43.371094 50.197266 C 41.165094 51.348266 38.66 52 36 52 C 27.841634 52 21.122508 45.891117 20.136719 38 L 23.154297 38 C 24.627297 38 25.495156 36.345812 24.660156 35.132812 L 17.507812 24.751953 C 17.144313 24.224453 16.5715 23.958984 16 23.958984 z"/></svg>