<?xml version="1.0" encoding="UTF-8" standalone="no" ?>
<!DOCTYPE svg PUBLIC "-//W3C//DTD SVG 1.1//EN" "http://www.w3.org/Graphics/SVG/1.1/DTD/svg11.dtd">
<svg xmlns="http://www.w3.org/2000/svg" xmlns:xlink="http://www.w3.org/1999/xlink" version="1.1" width="500pt" height="471pt" viewBox="0 0 499.99998 470.99998" xml:space="preserve">
<desc>Created with Fabric.js 5.3.0</desc>
<defs>
</defs>
<g transform="matrix(0.2515628128 0 0 0.2515628128 249.99999 235.49999)" id="FvG9m9hvOnVeIlgR6E0QV"  >
<g style=""   >
		<g transform="matrix(0.1333333333 0 0 -0.1333333333 0.1348635161 -0.0690865424)" id="ClWx9drjcE83jOFhq2imY"  >
<path style="stroke: none; stroke-width: 1; stroke-dasharray: none; stroke-linecap: butt; stroke-dashoffset: 0; stroke-linejoin: miter; stroke-miterlimit: 4; fill: rgb(0,0,0); fill-rule: nonzero; opacity: 1;"  transform=" translate(-2561.0114763705, -2560.5181490683)" d="M 2096 5097 C 1996 5040 1995 4909 2093 4836 C 2118 4817 2138 4815 2266 4812 L 2411 4808 L 2408 4677 L 2405 4546 L 2293 4533 C 1924 4492 1506 4329 1225 4116 L 1165 4071 L 1132 4103 L 1099 4136 L 1120 4184 C 1136 4219 1140 4241 1135 4271 C 1126 4325 1068 4386 1016 4395 C 944 4409 915 4391 768 4243 C 614 4087 603 4066 635 3985 C 654 3933 687 3904 741 3890 C 777 3880 802 3885 870 3914 C 880 3918 895 3911 909 3896 L 932 3871 L 909 3842 C 896 3826 854 3777 816 3734 C 609 3495 433 3145 351 2810 C 301 2607 287 2466 293 2216 C 301 1856 364 1594 519 1275 C 636 1036 772 847 967 654 C 1521 106 2334 -120 3095 64 C 3999 283 4674 1027 4811 1955 C 4835 2118 4837 2398 4815 2567 C 4756 3022 4560 3448 4252 3795 L 4181 3875 L 4204 3898 C 4227 3921 4228 3921 4260 3905 C 4358 3854 4475 3915 4487 4022 C 4495 4087 4469 4128 4338 4257 C 4194 4400 4140 4424 4060 4381 C 3987 4343 3957 4244 3996 4168 C 4011 4139 4011 4137 3984 4109 C 3968 4093 3951 4081 3945 4084 C 3939 4086 3899 4113 3856 4144 C 3574 4346 3186 4493 2827 4533 L 2715 4546 L 2712 4677 L 2709 4808 L 2854 4812 C 2998 4815 2998 4815 3037 4846 C 3107 4903 3118 4995 3063 5061 C 3013 5120 3010 5120 2553 5120 C 2139 5120 2135 5119 2096 5097 z M 2710 4029 C 3556 3952 4211 3311 4311 2465 C 4328 2318 4317 2074 4286 1924 C 4237 1689 4131 1446 3992 1250 C 3906 1128 3702 924 3580 838 C 3462 754 3237 641 3105 600 C 2733 483 2363 485 2002 605 C 986 945 507 2105 986 3063 C 1281 3652 1870 4022 2540 4039 C 2570 4039 2647 4035 2710 4029 z" stroke-linecap="round" />
</g>
		<g transform="matrix(0.1333333333 0 0 -0.1333333333 51.0594784387 -24.5166666667)" id="JxcVPTL2FAXzWn_KRt2Od"  >
<path style="stroke: none; stroke-width: 1; stroke-dasharray: none; stroke-linecap: butt; stroke-dashoffset: 0; stroke-linejoin: miter; stroke-miterlimit: 4; fill: rgb(0,0,0); fill-rule: nonzero; opacity: 1;"  transform=" translate(-2942.9460882906, -2743.875)" d="M 2495 3350 C 2473 3339 2446 3317 2435 3302 C 2416 3276 2415 3257 2412 2755 C 2409 2164 2406 2187 2491 2142 L 2534 2119 L 2956 2122 C 3365 2125 3379 2126 3406 2146 C 3457 2184 3475 2217 3475 2275 C 3475 2333 3457 2366 3406 2404 C 3380 2424 3364 2425 3045 2428 L 2711 2431 L 2708 2853 C 2705 3329 2708 3308 2624 3350 C 2573 3375 2545 3375 2495 3350 z" stroke-linecap="round" />
</g>
</g>
</g>
</svg>